<svg xmlns="http://www.w3.org/2000/svg" version="1.1" xmlns:xlink="http://www.w3.org/1999/xlink" xmlns:svgjs="http://svgjs.com/svgjs" width="288.000000pt" height="288.000000pt"><svg version="1.0" xmlns="http://www.w3.org/2000/svg" width="288.000000pt" height="288.000000pt" viewBox="0 0 288.000000 288.000000" preserveAspectRatio="xMidYMid meet">
<metadata>
Created by potrace 1.14, written by Peter Selinger 2001-2017
</metadata>
<g transform="translate(0.000000,288.000000) scale(0.100000,-0.100000)" fill="#000000" stroke="none">
<path d="M2295 2649 c-58 -13 -104 -34 -152 -68 -26 -19 -60 -36 -76 -37 -15
-1 -67 -21 -115 -44 -48 -23 -88 -41 -90 -41 -1 1 -9 -4 -16 -11 -24 -23 -53
-45 -63 -49 -32 -12 -193 -163 -193 -182 0 -6 -27 -21 -60 -32 -28 -10 -80
-37 -100 -52 -14 -11 -56 -37 -95 -58 -38 -22 -71 -43 -73 -47 -2 -4 -10 -8
-18 -8 -20 0 -123 -107 -159 -165 -16 -25 -33 -45 -38 -45 -4 0 -6 -4 -3 -9
13 -21 -23 -32 -74 -23 -72 13 -121 -2 -180 -55 -56 -50 -91 -127 -92 -202 -1
-59 9 -95 42 -152 24 -39 26 -48 14 -64 -16 -21 -38 -119 -36 -159 0 -16 -5
-41 -13 -56 -8 -15 -16 -40 -19 -55 -5 -28 -16 -47 -16 -28 0 6 -23 21 -50 34
l-51 24 -45 145 c-25 80 -52 166 -59 192 -8 25 -20 59 -26 75 -22 53 -19 58
28 54 37 -2 43 0 43 16 0 10 -10 29 -23 43 -12 14 -32 41 -44 60 -20 33 -20
37 -6 65 9 16 22 35 30 43 23 23 34 50 23 57 -13 8 -79 -5 -86 -16 -12 -21
-60 -9 -82 21 -12 16 -22 32 -22 35 0 12 -64 65 -71 58 -4 -5 -10 -39 -14 -77
-10 -100 -16 -111 -77 -134 -85 -32 -75 -51 42 -83 25 -7 49 -16 54 -20 11 -9
27 -91 27 -134 0 -55 8 -63 34 -31 20 26 23 27 28 10 9 -33 77 -256 103 -336
22 -72 23 -79 8 -120 -18 -53 -17 -203 2 -298 15 -72 47 -157 76 -207 11 -19
15 -33 9 -33 -6 0 -11 -6 -11 -14 0 -8 -7 -16 -14 -19 -18 -7 -47 -61 -53 -97
-3 -14 -4 -45 -4 -70 1 -50 -11 -69 -51 -87 -48 -21 -66 -81 -49 -160 1 -2
564 -3 1252 -3 l1250 0 -7 23 c-4 12 -11 33 -17 47 -5 14 -9 41 -8 60 2 41
-26 85 -62 95 -86 26 -111 49 -122 110 -18 106 -15 102 -71 127 -24 10 -44 20
-44 22 0 2 13 34 28 72 49 119 65 197 60 283 -3 59 -9 83 -24 98 -38 40 -71
54 -116 51 -30 -2 -43 1 -42 10 1 6 2 20 3 30 0 10 14 25 29 34 48 29 84 71
114 134 36 77 44 149 24 217 -10 34 -12 64 -7 87 6 26 3 45 -10 71 -20 40 -77
99 -95 99 -21 0 -24 15 -9 43 7 14 23 55 35 89 12 35 24 70 27 78 3 8 7 42 9
75 6 93 13 136 28 157 14 20 14 20 25 0 6 -11 8 -22 5 -25 -14 -14 75 -141
100 -142 6 -1 24 -5 39 -9 45 -13 72 8 98 78 15 41 22 82 21 126 0 57 -7 120
-13 128 -1 1 -2 5 -3 10 -13 59 -66 169 -99 209 -68 81 -84 96 -119 114 -97
50 -232 70 -323 48z"></path>
</g>
</svg><style>@media (prefers-color-scheme: light) { :root { filter: contrast(1) brightness(1); } }
@media (prefers-color-scheme: dark) { :root { filter: contrast(0.3846153846153846) brightness(4.5); } }
</style></svg>